# xmcd CD database file
#
# Track frame offsets:
#	150
#	11205
#	35257
#	49710
#	70657
#	87754
#	110252
#	122931
#	144980
#	166199
#	188670
#	206215
#	224983
#	248630
#	263093
#	280276
#	297779
#
# Disc length: 4175 seconds
#
# Revision: 0
# Processed by: cddbd v1.5.2PL0 Copyright (c) Steve Scherf et al.
# Submitted via: CDex 1.51
#
DISCID=fc104d11
DTITLE=Jazz Cafe - ¥ª©¤©@°Ø Àï±¡ºq
DYEAR=1997
DGENRE=Jazz
TTITLE0=My Funny Valentine
TTITLE1=Over The Rainbow
TTITLE2=Dream a Little Dream Of Me
TTITLE3=Unforgettable
TTITLE4=Smile
TTITLE5=What A Wonderful World
TTITLE6=A Kiss to Build a Dream On
TTITLE7=Blue Moon
TTITLE8=Everybody Love Somebody
TTITLE9=Stand By Me
TTITLE10=It's All In The Game
TTITLE11=Three Coins In The Fountain
TTITLE12=The Shadow Of Your Smile
TTITLE13=Will You Still Love Me Tomorrow
TTITLE14=Time After Time
TTITLE15=Are You Lonesome Tonight
TTITLE16=New York New York
EXTD=YEAR: 1997
EXTT0=
EXTT1=
EXTT2=
EXTT3=
EXTT4=
EXTT5=
EXTT6=
EXTT7=
EXTT8=
EXTT9=
EXTT10=
EXTT11=
EXTT12=
EXTT13=
EXTT14=
EXTT15=
EXTT16=
PLAYORDER=
